# xmcd CD database file
#
# Track frame offsets:
#	187
#	14972
#	26912
#	40755
#	57742
#	69490
#	79410
#	91592
#	110095
#	132835
#	171197
#	185945
#	195337
#	208835
#	220725
#	236535
#	248555
#	267985
#	293075
#
# Disc length: 4205 seconds
#
# Revision: 7
# Processed by: cddbd v1.5.2PL0 Copyright (c) Steve Scherf et al.
# Submitted via: CDex 1.70beta3
#
DISCID=22106b13
DTITLE=Who, the - Who's Better, Who's Best
DYEAR=1988
DGENRE=Rock
TTITLE0=My Generation
TTITLE1=Anyway, Anyhow, Anyhere
TTITLE2=The Kids Are Alright
TTITLE3=Substitute
TTITLE4=I'm A Boy
TTITLE5=Happy Jack
TTITLE6=Pictures Of Lily
TTITLE7=I Can See for Miles
TTITLE8=Who Are You
TTITLE9=Won't Get Fooled Again
TTITLE10=Magic Bus
TTITLE11=I Can't Explain
TTITLE12=Pinball Wizard
TTITLE13=I'm Free
TTITLE14=See Me, Feel Me
TTITLE15=Squeeze Box
TTITLE16=Join Together
TTITLE17=You Better, You Bet
TTITLE18=Baba O'Riley
EXTD=YEAR: 1988
EXTT0=
EXTT1=
EXTT2=
EXTT3=
EXTT4=
EXTT5=
EXTT6=
EXTT7=
EXTT8=
EXTT9=
EXTT10=
EXTT11=
EXTT12=
EXTT13=
EXTT14=
EXTT15=
EXTT16=
EXTT17=
EXTT18=
PLAYORDER=
